<svg width="24" height="24" viewBox="0 0 24 24" fill="none" xmlns="http://www.w3.org/2000/svg">
<rect width="24" height="24" rx="12" fill="#461F29"/>
<path fill-rule="evenodd" clip-rule="evenodd" d="M8.3757 8.06089C8.78465 7.01395 10.136 6.125 11.8991 6.125C14.0789 6.125 15.5596 7.44307 15.5596 8.78125C15.5596 10.1194 14.0789 11.4375 11.8991 11.4375C11.2252 11.4375 10.6789 11.9132 10.6789 12.5V14.625C10.6789 15.2118 11.2252 15.6875 11.8991 15.6875C12.573 15.6875 13.1193 15.2118 13.1193 14.625V13.465C15.8073 13.0314 18 11.1938 18 8.78125C18 6.01181 15.1105 4 11.8991 4C9.24027 4 6.85642 5.35134 6.06532 7.37661C5.84833 7.93215 6.18961 8.5357 6.8276 8.72465C7.46559 8.91362 8.1587 8.61644 8.3757 8.06089ZM11.8991 21C12.91 21 13.7294 20.2864 13.7294 19.4062C13.7294 18.5261 12.91 17.8125 11.8991 17.8125C10.8883 17.8125 10.0688 18.5261 10.0688 19.4062C10.0688 20.2864 10.8883 21 11.8991 21Z" fill="#FFFDE0"/>
</svg>
